<svg width="25" height="20" viewBox="0 0 25 20" fill="none" xmlns="http://www.w3.org/2000/svg">
<path d="M10.0001 10.8333C10.4603 10.8333 10.8334 10.4602 10.8334 10C10.8334 9.53975 10.4603 9.16666 10.0001 9.16666C9.53983 9.16666 9.16675 9.53975 9.16675 10C9.16675 10.4602 9.53983 10.8333 10.0001 10.8333Z" stroke="#7A95B8"  stroke-width="2" stroke-linecap="round" stroke-linejoin="round"/>
<path d="M10.0001 5C10.4603 5 10.8334 4.6269 10.8334 4.16667C10.8334 3.70644 10.4603 3.33334 10.0001 3.33334C9.53983 3.33334 9.16675 3.70644 9.16675 4.16667C9.16675 4.6269 9.53983 5 10.0001 5Z" stroke="#7A95B8"  stroke-width="2" stroke-linecap="round" stroke-linejoin="round"/>
<path d="M10.0001 16.6667C10.4603 16.6667 10.8334 16.2936 10.8334 15.8333C10.8334 15.3731 10.4603 15 10.0001 15C9.53983 15 9.16675 15.3731 9.16675 15.8333C9.16675 16.2936 9.53983 16.6667 10.0001 16.6667Z" stroke="#7A95B8"  stroke-width="2" stroke-linecap="round" stroke-linejoin="round"/>
<path d="M15.0001 10.8333C15.4603 10.8333 15.8334 10.4602 15.8334 10C15.8334 9.53975 15.4603 9.16666 15.0001 9.16666C14.5398 9.16666 14.1667 9.53975 14.1667 10C14.1667 10.4602 14.5398 10.8333 15.0001 10.8333Z" stroke="#7A95B8"  stroke-width="2" stroke-linecap="round" stroke-linejoin="round"/>
<path d="M15.0001 5C15.4603 5 15.8334 4.6269 15.8334 4.16667C15.8334 3.70644 15.4603 3.33334 15.0001 3.33334C14.5398 3.33334 14.1667 3.70644 14.1667 4.16667C14.1667 4.6269 14.5398 5 15.0001 5Z" stroke="#7A95B8"  stroke-width="2" stroke-linecap="round" stroke-linejoin="round"/>
<path d="M15.0001 16.6667C15.4603 16.6667 15.8334 16.2936 15.8334 15.8333C15.8334 15.3731 15.4603 15 15.0001 15C14.5398 15 14.1667 15.3731 14.1667 15.8333C14.1667 16.2936 14.5398 16.6667 15.0001 16.6667Z" stroke="#7A95B8"  stroke-width="2" stroke-linecap="round" stroke-linejoin="round"/>
</svg>
