<svg width="149" height="168" viewBox="0 0 149 168" fill="none" xmlns="http://www.w3.org/2000/svg">
<path d="M54.5369 161.946C53.3879 141.446 53.4582 80.6644 53.471 45.9034C53.4741 37.6533 53.4711 37.6534 53.471 31.9531C53.471 27.0256 54.5108 25.2782 56.1659 23.6663C58.8661 22.0584 62.982 20.4505 75.0681 20.4505C86.3562 20.4505 89.1094 22.0584 93.4298 23.6663C95.59 24.7382 96.6703 26.8712 96.6703 31.7917C96.6703 38.5283 96.6703 42.5345 96.6703 48.5335C89.7758 54.7565 81.3491 49.9301 73.3054 50.2962C67.943 50.6622 61.4315 48.0998 60.2824 56.5192C60.2824 59.0817 59.8994 61.2781 59.8994 63.8405C59.8994 66.403 59.8994 68.9654 59.8994 71.5279C59.8994 74.0903 59.8994 76.6527 59.8994 79.2152C59.8994 81.7776 59.8994 84.3401 59.8994 87.2686C59.8994 90.9292 59.8994 94.5898 59.8994 97.8844C59.8994 102.277 59.8994 107.036 59.8994 111.429C59.8994 115.089 59.8994 118.75 59.8994 122.411C59.8994 126.071 59.8994 129.732 59.8994 133.393C59.8994 137.053 59.8994 140.714 59.8994 144.374C59.8994 148.035 59.8994 151.696 59.1333 155.356C58.3673 157.919 57.2182 160.115 54.5369 161.946Z" fill="#6FDFFE"/>
<path d="M0.445843 106.831C0.445843 93.8983 -0.16037 90.1179 6.32035 86.8775C17.0023 84.5885 27.8833 84.7471 38.1838 87.4176C44.6644 91.738 43.5843 93.3582 43.5843 104.699C43.5843 124.141 44.0947 142.301 41.4242 158.705C37.9907 155.653 37.0698 156.426 36.3068 152.23C35.5438 144.981 35.9253 137.733 35.9253 130.866C35.9253 127.051 35.9253 123.236 35.9253 119.421C36.3068 109.883 29.8213 108.357 22.1913 107.976C15.3243 107.594 7.69433 110.265 0.445843 106.831Z" fill="#51FEF2"/>
<path d="M43.5587 126.609C43.5587 137.95 43.5587 136.87 43.5587 152.532C34.0212 160.543 19.7027 156.47 9.02069 156.852C1.99994 149.831 0.379639 141.963 0.379639 132.782C11.7208 121.981 28.4628 121.208 43.5587 126.609Z" fill="#43FEC7"/>
<path d="M106.701 68.6851C106.701 44.753 105.839 45.8332 128.154 45.8332C148.285 45.8332 148.285 45.8332 148.285 68.6851C134.551 74.0261 120.435 69.4481 106.701 68.6851Z" fill="#67EDFD"/>
<path d="M148.285 129.726C148.285 139.263 149.216 141.963 145.233 149.946C132.262 149.564 118.528 154.142 106.702 144.986C106.702 140.027 106.702 134.686 106.702 129.726C120.436 121.333 134.17 121.333 148.285 129.726Z" fill="#3EFECA"/>
<path d="M74.3654 0.012749C97.2193 0.012749 81.9954 0.0127658 85.8104 0.0127658C93.4299 0.0127311 95.7294 -0.611784 95.7294 6.87975C95.7294 16.13 94.51 15.2727 85.8104 15.2727C79.3884 15.2727 75.3133 15.2727 68.5872 15.2727C67.5761 15.2727 79.9284 15.2727 60.4864 15.2727C54.5457 15.2727 53.7644 13.8849 53.7644 8.40575C53.7644 1.71685 53.7644 0.0127183 62.1066 0.0127299C78.3083 0.0127524 72.2618 0.012749 74.3654 0.012749Z" fill="#7ED5FE"/>
<path d="M148.285 129.726C134.551 129.726 120.436 129.726 106.702 129.726C106.702 124.767 106.702 119.426 106.702 114.466C120.436 106.073 134.551 106.073 148.285 114.466C148.285 119.426 148.285 124.385 148.285 129.726Z" fill="#46FEDD"/>
<path d="M35.1594 64.8682C40.1188 65.2497 43.5523 64.8682 43.5523 72.8797C43.5523 78.7767 42.5043 80.1282 34.3964 80.1282C27.5294 80.1282 20.6624 80.1282 13.7954 80.1282C5.78036 80.1282 1.58732 80.1282 1.5874 72.1167C1.58748 64.1052 6.86056 64.8682 14.5584 64.8682C17.6104 64.8682 21.0439 64.8682 24.0959 64.8682C23.7144 64.8682 31.3444 64.8682 35.1594 64.8682Z" fill="#61F6FE"/>
<path d="M53.4657 114.748C53.4657 109.668 53.4657 104.198 53.4657 99.1192C67.7386 90.9143 82.3974 90.5236 96.6703 99.1192C96.6703 104.198 96.6703 109.668 96.6703 114.748C82.3974 122.952 67.7386 122.952 53.4657 114.748Z" fill="#54FEEC"/>
<path d="M0.447021 106.448C10.7475 100.344 22.1925 103.396 32.8745 103.015C45.0825 102.633 43.5565 108.48 43.5565 118.275C29.0595 126.286 14.944 126.286 0.447021 118.275C0.447021 114.46 0.447021 110.645 0.447021 106.448Z" fill="#4CFEE8"/>
<path d="M137.335 26.7182C145.297 26.7182 148.279 26.7182 148.279 32.4407C148.279 39.3525 148.279 40.8337 140.575 40.8337C132.871 40.8337 123.833 40.8337 115.733 40.8337C109.792 40.8337 107.632 40.8337 107.632 33.9519C107.632 28.0113 108.712 26.7182 114.707 26.7182C124.373 26.7182 130.716 26.7182 137.335 26.7182Z" fill="#79E1FD"/>
<path d="M148.285 114.464C134.551 114.464 120.436 114.464 106.702 114.464C106.702 110.649 106.702 106.834 106.702 103.019C119.291 88.522 133.788 94.2444 148.285 99.2039C148.285 104.163 148.285 109.504 148.285 114.464Z" fill="#4DFEEB"/>
<path d="M106.702 68.6806C120.436 61.4321 134.551 66.7731 148.285 68.6806C148.285 72.4955 148.285 76.3105 148.285 80.1255C134.551 87.7555 120.436 87.7555 106.702 80.1255C106.702 76.3105 106.702 72.4955 106.702 68.6806Z" fill="#5DF7FE"/>
<path d="M148.285 99.2001C134.551 102.634 120.054 94.6221 106.702 103.015C106.702 98.0556 106.702 92.7146 106.702 87.7551C120.436 82.0326 134.551 82.0326 148.285 87.7551C148.285 91.5701 148.285 95.3851 148.285 99.2001Z" fill="#53FEF7"/>
<path d="M0.447014 118.275C14.944 118.275 29.0595 118.275 43.5565 118.275C43.5565 122.09 43.5565 125.905 43.5565 129.72C29.0595 129.72 14.4951 127.981 0.379639 133.322C0.379639 127.981 0.447014 123.235 0.447014 118.275Z" fill="#44FED9"/>
<path d="M53.4845 65.0004C53.4845 43.6317 52.3869 43.369 66.9741 43.6318C73.2349 43.7446 79.4815 43.9559 85.8692 43.6318C98.2905 43.0014 96.6511 39.2944 96.6511 65.0004C81.5576 80.9575 66.9741 80.0122 53.4845 65.0004Z" fill="#67E8FE"/>
<path d="M53.4657 148.373C53.4657 144.555 53.4657 140.738 53.4657 136.921C67.7386 128.523 82.0116 128.523 96.6703 136.921C96.6703 140.738 96.6703 144.555 96.6703 148.373C82.0116 156.389 67.7386 156.389 53.4657 148.373Z" fill="#3BFEC4"/>
<path d="M106.702 144.985C119.513 145.744 131.394 143.044 145.233 149.945C142.944 153.378 140.228 157.655 136.795 160.325C126.494 155.747 116.122 170.046 108.712 163.026C106.551 160.979 107.092 163.026 106.702 144.985Z" fill="#3BFEB4"/>
<path d="M96.6703 99.2989C82.3974 99.2989 67.7386 99.2989 53.4657 99.2989C53.4657 95.2853 53.4657 91.2718 53.4657 87.2582C67.7386 78.8298 82.3974 78.8298 96.6703 87.2582C96.6703 91.2718 96.6703 95.2853 96.6703 99.2989Z" fill="#53FEF7"/>
<path d="M53.4657 147.904C67.7386 147.904 82.3973 147.904 96.6703 147.904C96.6703 151.832 96.6703 155.76 96.6703 159.687C82.3973 165.579 67.7386 165.579 53.4657 159.687C53.4657 155.76 53.4657 151.832 53.4657 147.904Z" fill="#36FEB6"/>
<path d="M0 142.503C14.2729 142.503 27.3115 139.901 41.5844 139.901C41.5844 143.829 41.5844 148.837 41.5844 152.765C27.3115 158.656 21.8338 162.977 7.56081 157.085C4.32046 153.845 0.540058 148.984 0 142.503Z" fill="#36FEB6"/>
<path d="M53.4657 114.42C67.7386 114.42 82.3974 114.42 96.6703 114.42C96.6703 118.167 96.6703 121.914 96.6703 125.66C82.3974 133.903 67.7386 133.528 53.4657 125.66C53.4657 121.914 53.4657 118.167 53.4657 114.42Z" fill="#46FEDD"/>
<path d="M53.4657 125.222C67.7386 125.222 82.3974 125.222 96.6703 125.222C96.6703 129.182 96.6703 133.142 96.6703 137.103C82.3974 137.103 67.7386 137.103 53.4657 137.103C53.4657 133.142 53.4657 129.182 53.4657 125.222Z" fill="#40FED1"/>
<path d="M53.4668 158.705C67.7394 158.705 82.3977 158.705 96.6703 158.705C96.6703 162.212 96.6703 159.412 96.6703 163.568C96.6703 166.125 93.5783 167.346 92.4862 167.346C89.2098 167.346 88.3685 167.346 85.9334 167.346C75.8852 167.346 68.4835 167.346 58.0839 167.346C57.1802 167.346 55.5751 166.983 54.8075 166.125C53.7153 164.905 53.4451 164.48 53.4669 162.659C53.4887 160.839 53.4668 160.022 53.4668 158.705Z" fill="#31FEA7"/>
<path d="M148.285 87.7551C134.551 87.7551 120.436 87.7551 106.702 87.7551C106.702 85.0846 106.702 82.7956 106.702 80.1251C120.436 80.1251 134.551 80.1251 148.285 80.1251C148.285 82.7956 148.285 85.0846 148.285 87.7551Z" fill="#58FCFD"/>
<path d="M96.6703 87.4176C82.3974 87.4176 67.7386 87.4176 53.4657 87.4176C53.4657 84.8797 53.4657 82.7044 53.4657 80.1665C67.7386 72.5528 82.3974 72.5528 96.6703 80.1665C96.6703 82.7044 96.6703 84.8797 96.6703 87.4176Z" fill="#58FDFD"/>
<path d="M96.6703 80.9369C82.3974 80.9369 67.7386 80.9369 53.4657 80.9369C53.4657 77.8653 53.4657 75.2325 53.4657 72.161C67.7386 65.1402 82.3974 65.1402 96.6703 72.161C96.6703 75.2325 96.6703 77.8653 96.6703 80.9369Z" fill="#5CF8FE"/>
<path d="M96.6703 72.296C82.3974 72.296 67.7386 72.296 53.4657 72.296C53.4657 69.2717 53.4657 66.6794 53.4657 63.6551C67.7386 63.6551 82.3974 63.6551 96.6703 63.6551C96.6703 66.6794 96.6703 69.2717 96.6703 72.296Z" fill="#5FF3FE"/>
<path d="M7.94043 155.465C7.94038 151.684 33.0662 153.018 43.5844 151.684C43.5844 153.974 43.5844 154.14 43.5844 157.085C43.5844 163.5 40.8841 166.266 36.0236 166.266C25.2224 166.266 14.9612 164.646 7.94043 155.465Z" fill="#32FEA8"/>
<path d="M107.092 159.245C109.252 157.085 113.032 156.005 121.38 156.545C129.234 156.545 132.474 157.085 137.335 159.785C139.651 157.605 131.753 166.284 121.38 166.266C119.504 166.263 113.032 166.806 109.792 165.186C107.092 163.566 107.092 160.865 107.092 159.245Z" fill="#32FDA9"/>
<path d="M36.2125 87.3767C25.9121 87.3767 14.6209 86.8775 4.32043 86.8775C9.25195 84.5031 12.9614 84.7173 19.442 84.7173C31.3233 84.7173 30.7833 85.2574 36.2125 87.3767Z" fill="#65FEFA"/>
</svg>
