<svg width="256" height="44" viewBox="0 0 256 44" fill="none" xmlns="http://www.w3.org/2000/svg">
<g clip-path="url(#clip0)">
<path d="M163.799 18.5C168.199 14.4 175.799 8.8 176.299 8.1L176.399 8C176.899 8 180.099 8.3 182.399 8.7C179.199 11.5 176.399 14.2 173.499 16.7C171.499 18.4 171.299 19.8 173.199 22C176.399 25.7 178.999 29.8 181.999 33.6C182.699 34.5 183.099 35.2 182.799 36.2C182.399 37.3 177.699 37.2 176.499 36.7C174.999 35.3 168.699 24.7 165.599 25.4C162.499 26.9 164.099 30.8 163.999 34.2C164.099 37.8 161.999 36.9 160.099 36.9C157.999 37.1 156.799 36.8 156.799 34.1C156.999 26.8 157.099 19.5 156.899 12.2C156.899 10.7 156.899 9.3 157.799 8.5C158.299 8 162.699 7.9 163.299 8.5C163.799 9 163.999 9.9 163.999 11.3C163.799 13.4 163.699 15.4 163.799 18.5Z" fill="white"/>
<path d="M237.9 19.2008C237.9 23.8008 237.9 28.5008 237.9 33.1008C237.9 35.0008 237.7 36.2008 235.3 36.2008C232.9 36.2008 232.1 35.3008 232.1 33.0008C232.2 26.2008 232.1 19.4008 232.1 12.5008C232.1 10.6008 232.2 8.60078 234.5 8.10078C236.7 7.60078 238.5 7.90078 239.9 10.3008C242.6 15.4008 245.8 20.2008 249.6 24.9008C249.6 20.4008 249.6 15.8008 249.6 11.3008C249.6 9.30078 249.6 7.80078 252.4 7.80078C255.2 7.80078 255.7 8.90078 255.7 11.4008C255.6 18.2008 255.7 25.0008 255.6 31.9008C255.6 33.3008 255.8 35.8008 254.1 36.0008C251.9 36.1008 250.6 36.4008 249.5 35.1008C249 34.8008 241.8 23.8008 238.9 18.8008C238.4 18.5008 238 18.6008 237.9 19.2008Z" fill="#03D0D6"/>
<path d="M64.699 37.0001C60.299 37.2001 56.499 36.3001 54.199 32.7001C53.199 31.2001 51.599 28.8001 53.399 27.5001C54.999 26.4001 58.199 26.0001 59.599 28.5001C61.299 31.4001 63.799 31.0001 66.299 31.0001C67.699 31.0001 68.499 30.3001 68.799 29.0001C69.099 27.5001 68.399 26.5001 66.899 26.0001C64.299 25.2001 61.599 24.6001 59.099 23.6001C55.299 22.1001 52.199 19.9001 52.899 15.1001C53.499 10.6001 56.399 8.40009 60.399 7.20009C66.499 5.50009 71.699 7.70009 73.999 12.4001C74.799 14.0001 75.699 15.8001 74.199 16.7001C72.899 17.5001 70.599 17.7001 69.299 15.9001C67.599 13.6001 65.399 12.6001 62.399 13.0001C61.099 13.2001 60.199 13.8001 59.899 15.0001C59.599 16.5001 60.399 17.6001 61.799 18.0001C64.699 18.8001 67.699 19.5001 70.599 20.4001C74.699 21.7001 76.199 24.5001 75.899 28.9001C75.599 32.9001 73.999 35.1001 70.099 36.1001C68.199 36.5001 66.399 37.2001 64.699 37.0001Z" fill="white"/>
<path d="M145.099 7C148.099 7.1 152.099 8.3 154.199 13C154.999 14.7 155.599 17.1 153.999 17.8C152.399 18.5 149.199 19.2 148.099 16.8C146.599 13.4 144.599 12 140.199 14C135.899 15.9 135.599 19.6 135.799 23.3C135.999 27.1 137.899 30.2 141.899 31C144.299 31.5 146.599 30.5 147.599 28.2C148.999 24.8 152.399 25.4 153.799 26.4C155.799 27.7 154.699 30.2 153.199 32.3C149.499 37.4 144.099 37.8 138.899 36.9C134.399 36.1 130.599 33.2 129.799 28.1C129.299 24.7 128.699 21.7 129.499 17.7C131.399 11.4 133.499 7.2 145.099 7Z" fill="white"/>
<path d="M209.1 22.3C208.9 6.10002 207.6 7.50002 223.6 8.00002C224.9 8.00002 226.3 8.10002 227.6 8.00002C229.4 7.90002 229.8 8.90002 229.8 10.5C229.8 12 229.6 13.1 227.7 13C224.5 12.9 221.4 13.1 218.2 13C216 12.9 214.9 13.4 214.9 16C214.9 18.7 216.3 18.8 218.4 18.9C219.9 19 221.4 18.9 222.9 18.9C224.3 18.9 225.7 18.5 226 21C226 23.4 225.7 23.8 223.2 23.9C222.2 24 221.2 24 220.2 24C217 24.1 214.7 23 214.9 27.6C215.1 32.4 218.1 30.9 220.4 30.9C222.5 31 224.7 30.9 226.9 30.9C228.9 30.9 229.9 31.4 229.9 33.7C229.9 36.2 228.6 36.3 226.7 36.3C222 36.3 217.4 36.2 212.7 36.3C210.1 36.4 209.1 35.5 209.2 32.9C209.2 29.3 209.1 25.8 209.1 22.3Z" fill="#03D0D6"/>
<path d="M191.5 30.8011C195.9 30.8011 199.4 30.9011 202.9 30.8011C205.1 30.7011 205.8 31.5011 205.8 33.7011C205.8 35.4011 205.1 36.0011 203.9 36.1011C203.6 36.1011 186.9 36.2011 186.2 36.3011C185 36.3011 184.1 36.3011 183.7 35.0011C183.1 33.1011 183.4 31.1011 184.9 29.4011C189.2 24.4011 193.5 19.3011 198.6 13.2011C194.5 13.2011 191.5 13.2011 188.4 13.2011C186 13.2011 183.8 12.8011 183.9 9.90107C183.9 8.10107 184.8 7.80107 185.9 7.90107C186.6 7.90107 203 8.00107 203.7 7.90107C204.6 7.80107 205.5 8.00107 205.8 9.30107C206.3 11.2011 206.1 13.2011 204.6 14.9011C200.7 19.2011 192.4 29.4011 191.5 30.8011Z" fill="#01CFD6"/>
<path d="M84.7997 20.7C84.7997 16.9 84.6997 16 84.5997 14.2C83.9997 14 82.3997 14.1 78.9997 14C77.0997 13.9 76.8997 13.5 76.7997 11.8C76.6997 10 76.4997 8.2 79.0997 8.1C85.3997 8 91.7997 8 98.0997 8C98.9997 8 99.4997 8.3 99.6997 8.7C100.1 9.4 100.1 13.5 99.3997 13.7C99.0997 13.8 98.4997 14 97.4997 14C94.0997 14 92.4997 14.1 91.6997 14.1C91.6997 14.6 91.6997 16.3 91.6997 20.3C91.5997 27.6 91.5997 29.7 91.7997 34.3C91.9997 37.7 89.7997 36.9 87.8997 37C85.7997 37.2 84.3997 36.9 84.5997 34.2C85.0997 31.2 84.6997 22.1 84.7997 20.7Z" fill="white"/>
<path d="M14.7 43.7C14.4 38.1 14 16.4 14 11.6C14 6.1 14 5.5 21.4 5.5C26.3 5.5 26 8.7 25.7 12C23.9 13.7 21.7 13.1 19.6 13.2C18.2 13.3 16.5 12.6 16.2 14.9C16.2 15.6 16.1 16.2 16.1 16.9C16.1 17.6 16.1 18.3 16.1 19C16.1 19.7 16.1 20.4 16.1 21.1C16.1 21.8 16.1 22.5 16.1 23.3C16.1 24.3 16.1 25.3 16.1 26.2C16.1 27.4 16.1 28.7 16.1 29.9C16.1 30.9 16.1 31.9 16.1 32.9C16.1 33.9 16.1 34.9 16.1 35.9C16.1 36.9 16.1 37.9 16.1 38.9C16.1 39.9 16.1 40.9 15.9 41.9C15.7 42.6 15.4 43.2 14.7 43.7Z" fill="#6FDFFE"/>
<path d="M-0.000298131 28.0003C-0.000298131 25.9003 -0.300298 23.7003 1.5997 22.9003C4.3997 22.3003 7.0997 22.2003 9.7997 22.9003C11.6997 23.9003 11.2997 25.6003 11.3997 27.7003C11.2997 32.8003 11.4997 38.5003 10.7997 42.8003C9.8997 42.0003 9.5997 41.0003 9.3997 39.9003C9.1997 38.0003 9.2997 36.1003 9.2997 34.3003C9.2997 33.3003 9.2997 32.3003 9.2997 31.3003C9.3997 28.8003 7.6997 28.4003 5.6997 28.3003C3.8997 28.2003 1.8997 28.9003 -0.000298131 28.0003Z" fill="#51FEF2"/>
<path d="M11.3006 34.0011C11.3006 36.0011 11.3006 38.0011 11.3006 40.0011C8.80058 42.1011 5.80058 40.9011 3.00058 41.0011C1.00058 39.3011 0.000577601 37.3011 0.100578 34.9011C3.50058 31.8011 7.30058 31.8011 11.3006 34.0011Z" fill="#43FEC7"/>
<path d="M28.9002 18.0013C28.7002 12.8013 30.2002 11.9013 34.6002 12.0013C39.1002 12.1013 39.9002 13.3013 39.8002 18.0013C36.2002 19.4013 32.5002 18.2013 28.9002 18.0013Z" fill="#67EDFD"/>
<path d="M39.8004 34.0016C39.9004 35.7016 40.2004 37.4016 39.0004 39.3016C35.6004 39.2016 32.0004 40.4016 28.9004 38.0016C28.9004 36.7016 28.9004 35.3016 28.9004 34.0016C32.5004 31.8016 36.1004 31.8016 39.8004 34.0016Z" fill="#3EFECA"/>
<path d="M19.3 0.000660935C20.9 0.000660935 21.9 0.000660935 22.9 0.000660935C24.2 0.000660935 25.5 0.000660896 25.5 1.80066C25.6 4.00066 24.8 4.00066 22.9 4.00066C21.9 4.00066 21 4.00066 19.9 4.00066C17.9 3.90066 14.5 4.90066 14.5 2.20066C14.3 -0.399339 15.8 0.000660935 19.3 0.000660935Z" fill="#7ED5FE"/>
<path d="M39.8004 34.0016C36.2004 34.0016 32.5004 34.0016 28.9004 34.0016C28.9004 32.7016 28.9004 31.3016 28.9004 30.0016C32.5004 27.8016 36.2004 27.8016 39.8004 30.0016C39.8004 31.3016 39.8004 32.6016 39.8004 34.0016Z" fill="#46FEDD"/>
<path d="M9.09891 17.0008C10.3989 17.1008 11.3989 17.6008 11.2989 19.1008C11.1989 20.5008 10.0989 21.0008 8.89891 21.0008C7.09891 21.0008 5.29891 21.0008 3.49891 21.0008C1.99891 21.0008 0.19891 20.9008 0.29891 18.9008C0.39891 16.9008 2.19891 17.0008 3.69891 17.0008C4.49891 17.0008 5.39891 17.0008 6.19891 17.0008C6.09891 17.0008 8.09891 17.0008 9.09891 17.0008Z" fill="#61F6FE"/>
<path d="M14.5 30.0014C14.5 28.7014 14.5 27.3014 14.5 26.0014C18.2 23.9014 22 23.8014 25.7 26.0014C25.7 27.3014 25.7 28.7014 25.7 30.0014C22 32.1014 18.2 32.1014 14.5 30.0014Z" fill="#54FEEC"/>
<path d="M0 27.8999C2.7 26.2999 5.7 27.0999 8.5 26.9999C11.7 26.8999 11.4 28.9999 11.3 30.9999C7.5 33.0999 3.8 33.0999 0 30.9999C0 29.9999 0 28.9999 0 27.8999Z" fill="#4CFEE8"/>
<path d="M38.0988 7.00078C38.9988 7.10078 39.6988 7.60078 39.7988 8.50078C39.8988 9.60078 39.2988 10.5008 38.2988 10.7008C37.1988 10.9008 32.7988 11.1008 31.7988 11.0008C30.3988 10.9008 29.4988 10.7008 29.2988 8.90078C29.2988 7.40078 29.9988 7.00078 30.9988 7.00078C31.2988 6.90078 36.8988 6.90078 38.0988 7.00078Z" fill="#79E1FD"/>
<path d="M39.8004 30.001C36.2004 30.001 32.5004 30.001 28.9004 30.001C28.9004 29.001 28.9004 28.001 28.9004 27.001C32.2004 23.201 36.0004 24.701 39.8004 26.001C39.8004 27.301 39.8004 28.701 39.8004 30.001Z" fill="#4DFEEB"/>
<path d="M28.9004 18.0001C32.5004 16.1001 36.2004 17.5001 39.8004 18.0001C39.8004 19.0001 39.8004 20.0001 39.8004 21.0001C36.2004 23.0001 32.5004 23.0001 28.9004 21.0001C28.9004 20.0001 28.9004 19.0001 28.9004 18.0001Z" fill="#5DF7FE"/>
<path d="M39.8004 26C36.2004 26.9 32.4004 24.8 28.9004 27C28.9004 25.7 28.9004 24.3 28.9004 23C32.5004 21.5 36.2004 21.5 39.8004 23C39.8004 24 39.8004 25 39.8004 26Z" fill="#53FEF7"/>
<path d="M0 31C3.8 31 7.5 31 11.3 31C11.3 32 11.3 33 11.3 34C7.5 34 3.7 33.6 0 35C0 33.6 0 32.3 0 31Z" fill="#44FED9"/>
<path d="M14.4991 15.001C14.1991 12.501 14.2991 10.801 17.9991 11.801C20.3991 12.501 23.0991 12.001 25.6991 12.001C25.6991 13.001 25.6991 14.001 25.6991 15.001C21.8991 17.201 18.1991 16.501 14.4991 15.001Z" fill="#67E8FE"/>
<path d="M14.5 39.0016C14.5 38.0016 14.5 37.0016 14.5 36.0016C18.2 33.8016 21.9 33.8016 25.7 36.0016C25.7 37.0016 25.7 38.0016 25.7 39.0016C21.9 41.1016 18.2 41.1016 14.5 39.0016Z" fill="#3BFEC4"/>
<path d="M28.9004 38.0014C32.3004 38.6014 35.9004 36.7014 39.0004 39.3014C38.4004 40.2014 37.6004 41.0014 36.7004 41.7014C34.0004 40.5014 31.5004 43.7014 28.9004 42.0014C28.9004 40.6014 28.9004 39.3014 28.9004 38.0014Z" fill="#3BFEB4"/>
<path d="M25.7 26.0008C22 26.0008 18.2 26.0008 14.5 26.0008C14.5 25.0008 14.5 24.0008 14.5 23.0008C18.2 20.9008 22 20.9008 25.7 23.0008C25.7 24.0008 25.7 25.0008 25.7 26.0008Z" fill="#53FEF7"/>
<path d="M14.5 39C18.2 39 22 39 25.7 39C25.7 40 25.7 41 25.7 42C22 43.5 18.2 43.5 14.5 42C14.5 41 14.5 40 14.5 39Z" fill="#36FEB6"/>
<path d="M14.5 30C18.2 30 22 30 25.7 30C25.7 31 25.7 32 25.7 33C22 35.2 18.2 35.1 14.5 33C14.5 32 14.5 31 14.5 30Z" fill="#46FEDD"/>
<path d="M14.5 33C18.2 33 22 33 25.7 33C25.7 34 25.7 35 25.7 36C22 36 18.2 36 14.5 36C14.5 35 14.5 34 14.5 33Z" fill="#40FED1"/>
<path d="M14.5 15C18.2 15 22 15 25.7 15C25.7 15.7 25.7 16.3 25.7 17C22 19.1 18.2 19 14.5 17C14.5 16.3 14.5 15.7 14.5 15Z" fill="#63EEFD"/>
<path d="M14.4988 42C18.1988 42 21.9988 42 25.6988 42C26.0988 44 24.6988 44 23.2988 44C20.3988 43.9 17.3988 43.8 14.4988 43.8C14.3988 43.7 14.3988 42.5 14.4988 42Z" fill="#31FEA7"/>
<path d="M39.8004 23C36.2004 23 32.5004 23 28.9004 23C28.9004 22.3 28.9004 21.7 28.9004 21C32.5004 21 36.2004 21 39.8004 21C39.8004 21.7 39.8004 22.3 39.8004 23Z" fill="#58FCFD"/>
<path d="M25.7 23.0008C22 23.0008 18.2 23.0008 14.5 23.0008C14.5 22.3008 14.5 21.7008 14.5 21.0008C18.2 18.9008 22 18.9008 25.7 21.0008C25.7 21.7008 25.7 22.3008 25.7 23.0008Z" fill="#58FDFD"/>
<path d="M25.7 21.0008C22 21.0008 18.2 21.0008 14.5 21.0008C14.5 20.3008 14.5 19.7008 14.5 19.0008C18.2 17.4008 22 17.4008 25.7 19.0008C25.7 19.7008 25.7 20.3008 25.7 21.0008Z" fill="#5CF8FE"/>
<path d="M25.7 19C22 19 18.2 19 14.5 19C14.5 18.3 14.5 17.7 14.5 17C18.2 17 22 17 25.7 17C25.7 17.7 25.7 18.3 25.7 19Z" fill="#5FF3FE"/>
<path d="M2.90039 41.1006C5.40039 39.0006 8.50039 40.4006 11.2004 40.1006C11.2004 41.0006 10.8004 42.9006 10.8004 43.0006C8.00039 43.5006 5.20039 43.3006 2.90039 41.1006Z" fill="#32FEA8"/>
<path d="M28.9004 42.0003C31.5004 42.3003 34.1004 39.7003 36.7004 41.7003C37.5004 41.0003 32.4004 45.4003 28.9004 42.0003Z" fill="#32FDA9"/>
<path d="M9.89922 22.9008C7.19922 22.9008 4.39922 22.9008 1.69922 22.9008C4.39922 21.6008 7.09922 21.6008 9.89922 22.9008Z" fill="#65FEFA"/>
<path d="M127.8 22.0011C127.8 31.6011 122.9 36.9011 113.9 36.9011C104.9 36.9011 99.7001 31.8011 99.9001 21.7011C100 12.8011 104.8 7.00112 114 7.00112C122.6 6.90112 128.3 13.5011 127.8 22.0011ZM113.7 31.0011C118 31.0011 120.8 27.4011 120.8 21.8011C120.8 16.7011 117.7 12.9011 113.6 13.0011C109.6 13.1011 106.8 16.9011 106.8 22.1011C106.8 27.4011 109.6 30.9011 113.7 31.0011Z" fill="white"/>
</g>
<defs>
<clipPath id="clip0">
<rect width="255.6" height="44" fill="white"/>
</clipPath>
</defs>
</svg>
